<svg width="252" height="252" viewBox="0 0 252 252" fill="none" xmlns="http://www.w3.org/2000/svg">
<path d="M0 30C0 13.4315 13.4315 0 30 0H222C238.569 0 252 13.4315 252 30V222C252 238.569 238.569 252 222 252H30C13.4315 252 0 238.569 0 222V30Z" fill="white"/>
<g clip-path="url(#clip0_207_40)">
<path d="M162.251 166.619H92.7491L83.8696 188.124L127.5 213L171.131 188.124L162.251 166.619ZM147.354 36L205.115 160.306L211.118 65.4926L147.354 36ZM107.647 36L43.8823 65.4926L49.8856 160.306L107.647 36ZM104.66 138.734H150.37L127.5 83.1705L104.66 138.734Z" fill="#C70836"/>
</g>
<defs>
<clipPath id="clip0_207_40">
<rect width="174" height="174" fill="white" transform="translate(39 39)"/>
</clipPath>
</defs>
</svg>
