<svg width="252" height="252" viewBox="0 0 252 252" fill="none" xmlns="http://www.w3.org/2000/svg">
<path d="M0 30C0 13.4315 13.4315 0 30 0H222C238.569 0 252 13.4315 252 30V222C252 238.569 238.569 252 222 252H30C13.4315 252 0 238.569 0 222V30Z" fill="white"/>
<path d="M144.534 119.701H161.132C161.517 119.701 161.887 119.557 162.16 119.302C162.433 119.046 162.587 118.699 162.589 118.336V104.421C162.589 104.057 162.436 103.709 162.163 103.451C161.889 103.194 161.519 103.05 161.132 103.05H144.534C144.149 103.05 143.781 103.193 143.509 103.449C143.237 103.705 143.084 104.052 143.084 104.414V118.336C143.084 119.089 143.735 119.701 144.534 119.701ZM121.394 79.6584H137.985C138.371 79.6584 138.742 79.5139 139.015 79.2567C139.288 78.9995 139.442 78.6506 139.442 78.2868V64.3642C139.44 64.0017 139.285 63.6548 139.012 63.3991C138.739 63.1435 138.37 63 137.985 63H121.394C121.01 63 120.641 63.1437 120.369 63.3996C120.097 63.6554 119.945 64.0024 119.945 64.3642V78.2868C119.945 79.039 120.587 79.6584 121.394 79.6584ZM121.394 99.6796H137.985C138.371 99.6776 138.74 99.5325 139.013 99.2757C139.286 99.0189 139.44 98.6711 139.442 98.3079V84.3927C139.44 84.0302 139.285 83.6832 139.012 83.4276C138.739 83.172 138.37 83.0285 137.985 83.0285H121.394C121.01 83.0285 120.641 83.1722 120.369 83.4281C120.097 83.6839 119.945 84.0309 119.945 84.3927V98.3079C119.945 99.0601 120.587 99.6722 121.394 99.6796ZM98.4423 99.6796H115.049C115.433 99.6757 115.799 99.5294 116.069 99.2726C116.339 99.0158 116.49 98.6692 116.49 98.3079V84.3927C116.49 84.0309 116.338 83.6839 116.066 83.4281C115.794 83.1722 115.425 83.0285 115.041 83.0285H98.4501C98.0657 83.0285 97.6971 83.1722 97.4254 83.4281C97.1536 83.6839 97.0009 84.0309 97.0009 84.3927V98.3079C97.0009 99.0601 97.6511 99.6722 98.4501 99.6796M75.2321 99.6796H91.8309C92.216 99.6776 92.5846 99.5322 92.8561 99.2752C93.1277 99.0182 93.2801 98.6704 93.2801 98.3079V84.3927C93.2801 84.0309 93.1274 83.6839 92.8556 83.4281C92.5839 83.1722 92.2153 83.0285 91.8309 83.0285H75.2321C74.847 83.0285 74.4776 83.172 74.2046 83.4276C73.9316 83.6832 73.7772 84.0302 73.7751 84.3927V98.3079C73.7751 99.0601 74.4331 99.6722 75.2321 99.6796ZM121.394 119.701H137.985C138.37 119.701 138.739 119.557 139.012 119.302C139.285 119.046 139.44 118.699 139.442 118.336V104.421C139.442 104.057 139.288 103.709 139.015 103.451C138.742 103.194 138.371 103.05 137.985 103.05H121.394C121.01 103.05 120.641 103.193 120.369 103.449C120.097 103.705 119.945 104.052 119.945 104.414V118.336C119.945 119.089 120.587 119.701 121.394 119.701ZM98.4423 119.701H115.049C115.432 119.699 115.798 119.554 116.069 119.298C116.339 119.043 116.49 118.697 116.49 118.336V104.421C116.491 104.242 116.455 104.064 116.383 103.899C116.311 103.733 116.205 103.582 116.071 103.454C115.937 103.327 115.778 103.226 115.603 103.156C115.427 103.087 115.239 103.051 115.049 103.05H98.4423C98.0593 103.052 97.6927 103.196 97.4226 103.452C97.1525 103.707 97.0009 104.053 97.0009 104.414V118.336C97.0009 119.089 97.6511 119.701 98.4501 119.701M75.2321 119.701H91.8309C92.2153 119.701 92.5839 119.557 92.8556 119.301C93.1274 119.045 93.2801 118.698 93.2801 118.336V104.421C93.2811 104.242 93.2447 104.064 93.1728 103.899C93.1009 103.733 92.995 103.582 92.8612 103.454C92.7273 103.327 92.5682 103.226 92.3927 103.156C92.2173 103.087 92.0291 103.051 91.8388 103.05H75.2321C74.8457 103.05 74.4751 103.194 74.2019 103.451C73.9286 103.709 73.7751 104.057 73.7751 104.421V118.336C73.7751 119.089 74.4331 119.701 75.2321 119.701ZM52.3588 119.701H68.9654C69.3484 119.699 69.715 119.554 69.9851 119.298C70.2552 119.043 70.4068 118.697 70.4068 118.336V104.421C70.4078 104.242 70.3713 104.064 70.2995 103.899C70.2276 103.733 70.1217 103.582 69.9879 103.454C69.854 103.327 69.6949 103.226 69.5194 103.156C69.344 103.087 69.1558 103.051 68.9654 103.05H52.3588C51.9758 103.052 51.6092 103.196 51.3391 103.452C51.0691 103.707 50.9174 104.053 50.9175 104.414V118.336C50.9175 119.089 51.552 119.701 52.3588 119.701ZM221.144 110.94C220.634 110.564 215.88 107.179 205.837 107.179C203.19 107.187 200.542 107.4 197.926 107.821C195.983 95.2845 184.977 89.1639 184.484 88.8984L181.789 87.4309L180.019 89.8423C177.794 93.0722 176.18 96.6414 175.225 100.387C173.423 107.541 174.52 114.266 178.381 120.01C173.721 122.459 166.24 123.056 164.72 123.108H40.883C39.3282 123.11 37.8374 123.691 36.7365 124.724C35.6356 125.758 35.0142 127.16 35.008 128.624C34.8629 138.836 36.6999 148.987 40.4286 158.578C44.6978 169.108 51.0428 176.866 59.3069 181.615C68.5503 186.947 83.5903 189.999 100.628 189.999C108.328 190.022 116.005 189.365 123.579 188.038C134.098 186.219 144.22 182.757 153.526 177.795C161.203 173.614 168.096 168.297 173.971 162.044C183.779 151.587 189.622 139.943 193.97 129.597H195.701C206.448 129.597 213.052 125.548 216.694 122.156C219.115 119.996 221.003 117.363 222.232 114.443L223 112.319L221.144 110.94Z" fill="#006DB8"/>
</svg>
