<svg width="252" height="252" viewBox="0 0 252 252" fill="none" xmlns="http://www.w3.org/2000/svg">
<rect width="252" height="252" rx="30" fill="white"/>
<path d="M142.692 30C141.337 30 140.076 30.2972 138.909 30.6987C141.384 32.3853 142.747 34.6342 143.421 37.1721C143.476 37.5174 143.57 37.7664 143.617 38.1118C143.675 38.4082 143.709 38.7091 143.718 39.0113C143.906 43.3884 142.598 43.9426 141.682 46.5287C140.272 49.8618 140.664 53.4438 142.355 56.3271C142.51 56.7138 142.705 57.0826 142.935 57.4274C141.094 44.8341 151.34 42.9467 153.228 39.0113C153.377 35.5738 150.612 33.2849 148.426 31.6946C146.709 30.5881 144.721 30.0033 142.692 30.008V30ZM158.132 32.8351C157.944 33.9836 158.085 33.6864 158.038 34.2808C157.991 34.6823 157.991 35.1803 157.944 35.5738C157.842 35.9754 157.748 36.377 157.599 36.7705C157.505 37.1721 157.364 37.5737 157.207 37.9672L156.683 39.1077C156.526 39.3085 156.44 39.5092 156.291 39.71L156.001 40.1518C155.77 40.4926 155.527 40.8248 155.273 41.1477C154.983 41.4529 154.74 41.7982 154.395 42.0472V42.0954C154.105 42.3443 153.816 42.6415 153.471 42.8985C152.453 43.6936 151.293 44.288 150.22 45.0349C149.883 45.2758 149.539 45.4846 149.249 45.7818C148.919 46.0195 148.61 46.2855 148.324 46.5769C147.988 46.8741 147.745 47.1713 147.455 47.5246C147.212 47.8218 146.922 48.1672 146.726 48.5205C146.483 48.8568 146.255 49.2053 146.045 49.5646C145.849 49.9662 145.708 50.3116 145.512 50.7051C145.363 51.1067 145.222 51.452 145.121 51.8536C144.992 52.2638 144.88 52.6791 144.784 53.0985C144.737 53.2993 144.737 53.5482 144.69 53.741C144.635 53.9418 144.635 54.1426 144.588 54.3433C144.588 54.7449 144.541 55.1866 144.541 55.5882C144.541 55.8854 144.541 56.1826 144.588 56.4797C144.588 56.8813 144.635 57.2829 144.737 57.7246C144.784 58.1262 144.878 58.5277 144.972 58.9293C145.128 59.3228 145.222 59.7164 145.363 60.118C145.465 60.3589 145.606 60.6159 145.708 60.8167L134.538 56.3833C132.65 55.8372 130.801 55.3392 128.906 54.8895L125.851 54.1426C122.937 53.5482 119.976 53.0985 117.015 52.8013C116.913 52.8013 116.866 52.7531 116.772 52.7531C111.769 52.2392 106.731 52.1721 101.716 52.5523C98.7555 52.7531 95.7945 53.1467 92.8335 53.6446C90.6331 54.0333 88.4463 54.4994 86.2771 55.0421L84.0916 55.6364C83.3709 55.9336 82.6816 56.2789 82.0079 56.5841L80.4021 57.331C80.3081 57.3792 80.2141 57.3792 80.1671 57.4274C79.6736 57.6764 79.2428 57.8772 78.8041 58.1262C78.1734 58.4114 77.5565 58.7277 76.9555 59.0739C76.6186 59.2184 76.2818 59.4192 75.9841 59.5718C75.845 59.6603 75.7012 59.7408 75.5533 59.8128C75.1146 60.0698 74.676 60.3187 74.2843 60.5677C73.8846 60.7943 73.4975 61.0437 73.125 61.3147C72.7803 61.5556 72.4435 61.7564 72.1537 62.0054C72.1067 62.0616 72.0518 62.0616 72.0048 62.1098C71.715 62.3106 71.3782 62.5595 71.0805 62.8085L70.9865 62.9049L70.258 63.4992C70.164 63.5554 70.0622 63.6518 69.9682 63.7C69.7254 63.9008 69.4825 64.1498 69.2397 64.3425C69.1927 64.4469 69.0909 64.5031 69.0439 64.5433C68.754 64.8485 68.4642 65.0975 68.1744 65.3946C68.1195 65.3946 68.1195 65.4428 68.0725 65.491C67.7706 65.7616 67.4805 66.0456 67.203 66.3423C67.1482 66.3905 67.1482 66.4387 67.1012 66.4387C66.8462 66.6946 66.6031 66.9626 66.3727 67.2419C66.2787 67.3382 66.1377 67.4346 66.0359 67.531C65.7757 67.8465 65.4985 68.1469 65.2055 68.4305C65.1585 68.5269 65.0646 68.5831 65.0176 68.6715C64.6259 69.073 64.2891 69.4746 63.8974 69.8762L63.7564 70.0208C62.9731 70.8721 62.1506 71.7154 61.2732 72.4623C60.4038 73.2655 59.4794 74.0044 58.5551 74.6549C56.6992 76.0141 54.6963 77.1487 52.5861 78.0361C51.5678 78.4859 50.4947 78.8875 49.4293 79.2328C47.3927 79.6826 45.3012 80.5259 43.5074 80.6785C43.1157 80.6785 42.6849 80.7749 42.2932 80.8231L41.0791 81.1202L39.9119 81.57C39.5202 81.7226 39.1364 81.9234 38.7526 82.1161C38.4079 82.3651 38.0241 82.5659 37.6794 82.8149C37.3338 83.0714 37.009 83.3561 36.7081 83.6662C36.3713 83.9071 36.0266 84.2605 35.7368 84.5577C35.4469 84.903 35.1571 85.2002 34.9143 85.5536C34.6714 85.9552 34.3816 86.3005 34.1858 86.7021C33.9306 87.0639 33.7028 87.4452 33.5043 87.8426C33.3085 88.2923 33.1126 88.6939 32.9716 89.1356C32.8228 89.5372 32.6818 89.987 32.533 90.4287C32.439 90.8303 32.3371 91.2318 32.298 91.6334C32.298 91.6736 32.2431 91.7298 32.2431 91.778C32.1491 92.2277 32.1491 92.8221 32.0943 93.1192C32.0473 93.4726 32.0003 93.7617 32.0003 94.1151C31.9913 94.9812 32.1904 95.8363 32.58 96.6049V96.6531C32.7288 96.9502 32.9246 97.2554 33.1205 97.5526C33.3085 97.8498 33.5121 98.1469 33.7471 98.4441C33.9899 98.6931 34.2798 98.9982 34.5774 99.2472C34.8605 99.5383 35.1671 99.8043 35.4939 100.042C36.6611 101.086 36.9509 101.432 38.4549 102.227C38.6977 102.379 38.9406 102.476 39.2382 102.628C39.2852 102.628 39.3322 102.677 39.3792 102.677C39.3792 102.781 39.3792 102.829 39.4262 102.926C39.5396 103.747 39.7501 104.55 40.0529 105.319C40.2096 105.616 40.3036 105.913 40.4446 106.21C40.4994 106.315 40.5464 106.411 40.6012 106.459C40.7892 106.861 40.9851 107.206 41.1731 107.56L41.9016 108.604C42.1444 108.901 42.4421 109.246 42.7319 109.552C43.0217 109.849 43.3115 110.098 43.6562 110.395C43.6562 110.395 43.7032 110.443 43.7502 110.443C44.04 110.692 44.3299 110.941 44.6275 111.142C44.9653 111.385 45.3216 111.6 45.6929 111.784C46.0297 111.985 46.4214 112.186 46.8052 112.338C47.1182 112.483 47.4433 112.599 47.7765 112.684C47.8313 112.732 47.8783 112.732 47.9723 112.78C48.1682 112.836 48.411 112.885 48.599 112.933C48.458 115.623 48.411 118.153 48.8027 119.053C49.2335 120.049 51.372 117.013 53.5026 113.527C53.2206 116.965 53.0248 120.996 53.5026 122.193C54.0431 123.438 56.9493 119.551 59.4794 115.27C93.9067 107.11 125.318 131.494 128.616 165.948C127.989 160.567 121.527 157.588 118.566 158.335C117.109 162.013 114.634 166.744 110.654 169.683C110.991 166.39 110.85 163.017 110.169 159.724C109.081 164.308 107.025 168.59 104.145 172.269C99.5388 172.615 94.925 170.326 92.4967 166.888C92.3009 166.744 92.2539 166.446 92.105 166.246C91.964 165.9 91.8152 165.547 91.7134 165.202C91.5724 164.868 91.475 164.517 91.4235 164.157C91.3765 163.804 91.3765 163.459 91.3765 163.057V162.31C91.4345 161.957 91.5156 161.608 91.6194 161.266C91.7212 160.921 91.8152 160.575 91.964 160.222C92.152 159.877 92.3009 159.523 92.5437 159.178C93.3662 156.785 93.3662 154.841 91.8622 153.701C91.5701 153.505 91.2606 153.338 90.9379 153.203C90.7499 153.154 90.507 153.058 90.3112 153.002L89.9195 152.857C89.587 152.747 89.2465 152.664 88.9012 152.608C88.5704 152.509 88.2276 152.458 87.8829 152.456C87.5303 152.399 87.1744 152.367 86.8176 152.359C86.5747 152.359 86.3319 152.407 86.0891 152.407C85.7261 152.405 85.3647 152.457 85.0159 152.56C84.6791 152.608 84.3422 152.656 83.9976 152.753C83.6511 152.848 83.311 152.966 82.9793 153.106C82.6424 153.251 82.3526 153.403 82.0079 153.556C81.7181 153.7 81.4283 153.901 81.0836 154.054C69.7723 161.62 76.5246 179.337 84.2404 184.469C81.3264 185.015 78.3655 185.658 77.543 186.308L77.4411 186.405C79.5326 187.698 81.7181 188.798 83.9976 189.746C87.1074 190.79 90.4052 191.729 91.8622 192.131V192.179C95.8848 193.026 99.9984 193.329 104.098 193.079C125.608 191.537 143.233 174.759 146.437 152.656L146.726 153.949C146.875 154.849 147.063 155.797 147.165 156.736V156.785C147.259 157.234 147.306 157.684 147.361 158.086V158.278C147.408 158.728 147.455 159.178 147.455 159.58C147.502 160.126 147.549 160.672 147.549 161.218V162.021C147.549 162.262 147.604 162.559 147.604 162.808C147.604 163.113 147.549 163.411 147.549 163.708V164.406C147.549 164.752 147.502 165.049 147.502 165.402C147.502 165.603 147.502 165.804 147.455 166.045C147.455 166.398 147.408 166.744 147.408 167.145C147.361 167.29 147.361 167.442 147.361 167.587L147.204 168.735C147.204 168.888 147.204 169.033 147.165 169.185C147.11 169.683 147.016 170.133 146.969 170.631V170.727L146.679 172.125V172.269L146.39 173.61C146.39 173.667 146.335 173.771 146.335 173.811C146.245 174.267 146.133 174.717 145.998 175.161V175.305C145.849 175.803 145.708 176.253 145.606 176.703C145.559 176.751 145.559 176.799 145.559 176.799L145.121 178.293C144.933 178.791 144.784 179.241 144.588 179.738C144.392 180.236 144.251 180.734 144.055 181.184C143.859 181.682 143.664 182.124 143.476 182.63H143.421C143.233 183.072 143.029 183.569 142.794 184.019C142.753 184.138 142.704 184.254 142.645 184.365C142.598 184.413 142.598 184.469 142.551 184.517C139.34 191.108 134.667 196.835 128.906 201.239C128.514 201.488 128.13 201.793 127.739 202.09C127.645 202.186 127.504 202.235 127.402 202.331C127.055 202.594 126.699 202.846 126.336 203.086L126.477 203.383H126.532L128.569 203.086H128.616C129.877 202.885 131.138 202.636 132.399 202.387C132.744 202.339 133.128 202.235 133.473 202.138L134.154 201.986C134.491 201.937 134.828 201.841 135.172 201.793C135.462 201.688 135.752 201.632 136.042 201.544C140.898 200.339 145.606 198.701 150.126 196.765C142.323 207.663 131.945 216.346 119.968 222C125.561 221.598 131.138 220.659 136.528 219.06C156.034 213.18 172.509 199.683 182.407 181.473C180.408 193 175.949 203.932 169.349 213.487C174.055 210.304 178.402 206.598 182.313 202.435C193.181 190.803 200.315 176.038 202.758 160.126C204.403 167.996 204.889 176.108 204.168 184.116C239.214 133.991 207.074 82.0197 193.624 68.3341C193.577 68.2297 193.53 68.1815 193.53 68.0852C193.483 68.1334 193.483 68.1334 193.483 68.1815C193.483 68.1334 193.483 68.1334 193.428 68.0852C193.428 68.6795 193.381 69.2738 193.334 69.8762C193.2 70.9912 193.038 72.1026 192.849 73.2092C192.614 74.3015 192.316 75.4018 192.026 76.5021C191.682 77.5462 191.298 78.6385 190.851 79.6826C190.407 80.7137 189.924 81.7265 189.402 82.7185C188.318 84.6699 187.068 86.519 185.666 88.2441C184.937 89.1356 184.162 89.9307 183.378 90.7339C182.921 91.1631 182.45 91.5782 181.968 91.9788L180.856 92.9747C179.989 93.676 179.082 94.3224 178.138 94.9102C177.21 95.523 176.253 96.0886 175.271 96.6049C174.253 97.1028 173.234 97.5526 172.216 98.0023C170.142 98.8112 167.996 99.411 165.808 99.7934C164.688 99.9942 163.576 100.091 162.503 100.195C161.728 100.251 160.952 100.283 160.176 100.291C159.072 100.276 157.969 100.209 156.871 100.091C155.762 100.001 154.66 99.8349 153.573 99.5926C152.472 99.3877 151.386 99.106 150.322 98.7493H150.267C151.34 98.6449 152.406 98.5485 153.479 98.3477C155.665 97.9591 157.81 97.3594 159.886 96.5567C160.952 96.1551 161.97 95.6572 162.941 95.1592C163.96 94.6613 164.884 94.1151 165.855 93.5208C166.78 92.8783 167.696 92.2277 168.573 91.529C169.451 90.8303 170.273 90.0833 171.049 89.2882C171.871 88.5413 172.6 87.698 173.328 86.8467C174.057 85.9552 174.738 85.0556 175.365 84.1641C175.467 84.0115 175.569 83.8108 175.663 83.6662C176.148 82.8631 176.634 82.0679 177.073 81.2728C178.143 79.2917 179.019 77.2067 179.689 75.0484C180.034 74.0044 180.276 72.9121 180.519 71.8118C180.715 70.6713 180.911 69.579 181.005 68.4787C181.099 67.3382 181.201 66.1897 181.201 65.0975C181.201 64.2943 181.146 63.4992 181.099 62.7041C181.002 61.5892 180.871 60.4776 180.707 59.371C180.518 58.249 180.278 57.1367 179.987 56.038C179.642 54.9939 179.305 53.8936 178.913 52.8495C178.522 51.8054 178.044 50.7613 177.558 49.7654C177.018 48.7695 176.485 47.7736 175.905 46.8259C175.285 45.8955 174.637 44.9848 173.963 44.0952C173.234 43.2439 172.506 42.3925 171.73 41.5492C171.322 41.1219 170.901 40.7068 170.469 40.3044C168.276 38.5615 166.004 36.9231 163.717 35.4293C163.403 35.2435 163.079 35.0772 162.746 34.9313C161.305 34.0272 159.754 33.3169 158.132 32.8351Z" fill="#EA2845"/>
</svg>
