<svg width="252" height="252" viewBox="0 0 252 252" fill="none" xmlns="http://www.w3.org/2000/svg">
<path d="M0 30C0 13.4315 13.4315 0 30 0H222C238.569 0 252 13.4315 252 30V222C252 238.569 238.569 252 222 252H30C13.4315 252 0 238.569 0 222V30Z" fill="white"/>
<g clip-path="url(#clip0_207_34)">
<path d="M125.986 213C123.658 213 121.338 212.391 119.301 211.209L98.0152 198.616C94.8397 196.84 96.3912 196.209 97.4352 195.839C101.676 194.367 102.532 194.027 107.063 191.46C107.534 191.192 108.158 191.293 108.644 191.583L125 201.291C125.594 201.617 126.428 201.617 126.972 201.291L190.735 164.49C191.33 164.149 191.707 163.468 191.707 162.765V89.1772C191.707 88.4595 191.323 87.7852 190.714 87.4227L126.979 50.6507C126.392 50.31 125.609 50.31 125.014 50.6507L61.294 87.43C60.6777 87.7852 60.2862 88.4812 60.2862 89.1772V162.765C60.2862 163.468 60.6777 164.135 61.294 164.468L78.7592 174.56C88.235 179.302 94.0422 173.719 94.0422 168.108V95.4557C94.0422 94.4262 94.8687 93.6215 95.8982 93.6215H103.982C104.99 93.6215 105.831 94.4335 105.831 95.4557V168.108C105.831 180.759 98.9432 188.009 86.9517 188.009C83.2687 188.009 80.3615 188.009 72.2632 184.014L55.5302 174.394C51.3977 172.008 48.8457 167.542 48.8457 162.765V89.1772C48.8457 84.3995 51.405 79.9335 55.5302 77.5555L119.294 40.711C123.332 38.4272 128.69 38.4272 132.692 40.711L196.448 77.5555C200.581 79.9407 203.147 84.3995 203.147 89.1772V162.765C203.147 167.542 200.581 171.994 196.448 174.394L132.692 211.209C130.662 212.391 128.349 213 125.986 213ZM177.468 140.449C177.468 126.674 168.159 123.006 148.562 120.417C128.762 117.8 126.747 116.444 126.747 111.812C126.747 107.984 128.451 102.872 143.117 102.872C156.218 102.872 161.047 105.693 163.033 114.523C163.207 115.357 163.968 115.966 164.824 115.966H173.096C173.611 115.966 174.097 115.741 174.445 115.379C174.793 114.987 174.981 114.487 174.93 113.958C173.647 98.7472 163.541 91.6567 143.117 91.6567C124.934 91.6567 114.088 99.3272 114.088 112.196C114.088 126.152 124.876 130.009 142.327 131.735C163.207 133.779 164.824 136.831 164.824 140.935C164.824 148.062 159.104 151.099 145.669 151.099C128.799 151.099 125.087 146.865 123.84 138.47C123.695 137.571 122.926 136.911 122.005 136.911H113.762C112.74 136.911 111.921 137.723 111.921 138.745C111.921 149.49 117.764 162.293 145.669 162.293C165.882 162.301 177.468 154.347 177.468 140.449Z" fill="#66A35D"/>
</g>
<defs>
<clipPath id="clip0_207_34">
<rect width="174" height="174" fill="white" transform="translate(39 39)"/>
</clipPath>
</defs>
</svg>
