<svg width="252" height="252" viewBox="0 0 252 252" fill="none" xmlns="http://www.w3.org/2000/svg">
<path d="M0 30C0 13.4315 13.4315 0 30 0H222C238.569 0 252 13.4315 252 30V222C252 238.569 238.569 252 222 252H30C13.4315 252 0 238.569 0 222V30Z" fill="white"/>
<g clip-path="url(#clip0_210_48)">
<path d="M213.659 146.648C213.555 146.33 213.411 146.027 213.232 145.745C212.178 143.749 209.616 143.153 205.592 143.985C193.055 146.571 188.2 144.98 186.44 143.84C196.617 128.308 204.981 109.548 209.502 92.0479C211.56 84.0801 215.555 65.3265 210.428 56.1666C210.101 55.5396 209.718 54.9432 209.284 54.3845C199.506 41.8902 185.155 35.1881 167.783 35.0038C156.449 34.884 146.774 37.6284 144.153 38.6393C142.855 38.397 141.55 38.1906 140.241 38.0205C136.958 37.426 133.632 37.1019 130.296 37.0513C121.331 36.9118 113.584 39.0548 107.168 43.4259C100.667 40.9908 70.8532 30.9513 52.4022 44.0234C42.0972 51.3239 37.3401 64.3725 38.2623 82.8076C38.5724 89.0108 42.1063 108.09 47.683 126.363C51.1699 137.788 54.8015 146.853 58.553 153.527C62.7466 161.066 67.0911 165.609 71.5531 167.097C74.9459 168.228 80.1427 168.19 85.6437 161.577C91.7195 154.271 97.7035 147.732 100.39 144.842C103.69 146.627 107.264 147.591 110.931 147.702C110.932 147.712 110.933 147.723 110.934 147.733C110.296 148.494 109.671 149.266 109.06 150.049C106.49 153.311 105.955 153.99 97.683 155.693C95.3306 156.179 89.0805 157.467 88.9895 161.847C88.9705 162.775 89.239 163.598 89.6864 164.325C91.407 167.534 96.6752 168.949 97.3835 169.126C107.503 171.655 116.375 169.824 122.95 163.98C122.821 180.898 123.538 197.478 125.569 202.559C127.247 206.752 131.346 217.002 144.294 217C146.194 217 148.285 216.779 150.585 216.286C164.098 213.389 169.966 207.417 172.236 194.25C173.375 187.647 175.281 172.446 176.321 163.149C176.45 162.616 176.592 162.234 176.754 162.116C176.759 162.113 177.282 161.759 179.993 162.349C180.104 162.373 180.216 162.39 180.329 162.401L182.255 162.57L182.368 162.577C188.789 162.869 196.862 161.496 201.563 159.311C206.445 157.045 215.256 151.482 213.659 146.648ZM52.98 125.063C47.3418 106.592 44.0476 88.0181 43.7867 82.8099C42.9632 66.3434 46.9497 54.8812 55.6342 48.7403C69.5625 38.8925 92.336 44.6392 101.953 47.7544C101.929 47.7787 101.903 47.8007 101.879 47.8257C86.5317 63.326 86.8957 89.807 86.9336 91.4261C86.9321 92.0502 86.9837 92.9344 87.0565 94.1508C87.3204 98.6045 87.8118 106.894 86.4991 116.282C85.2789 125.006 87.968 133.545 93.8762 139.708C94.4874 140.346 95.1259 140.945 95.7856 141.509C93.1557 144.325 87.4409 150.553 81.3584 157.87C77.0533 163.046 74.0806 162.054 73.1031 161.728C70.1312 160.737 66.9379 157.276 63.7142 151.701C60.0772 145.338 56.4077 136.294 52.98 125.063ZM98.5346 163.641C97.2371 163.316 96.0541 162.782 95.2571 162.297C95.9312 161.998 97.0574 161.613 98.9221 161.228C108.654 159.226 110.157 157.811 113.439 153.644C114.191 152.688 115.044 151.606 116.224 150.287C116.478 150.002 116.669 149.667 116.783 149.303C118.078 148.155 118.849 148.469 120.096 148.987C121.279 149.476 122.43 150.958 122.898 152.59C123.119 153.361 123.368 154.824 122.556 155.96C115.698 165.559 105.708 165.435 98.5346 163.641ZM114.414 133.398L114.016 134.468C113.007 137.172 112.069 139.686 111.488 142.074C106.427 142.058 101.502 139.896 97.7581 135.989C92.9965 131.021 90.8337 124.11 91.8241 117.027C93.2103 107.109 92.6985 98.4725 92.4232 93.833C92.3853 93.1831 92.3512 92.6144 92.3307 92.1655C94.5731 90.1779 104.964 84.6109 112.373 86.3081C115.754 87.0831 117.814 89.3846 118.671 93.3454C123.104 113.849 119.258 122.395 116.167 129.262C115.53 130.677 114.928 132.014 114.414 133.398ZM170.255 168.073C170.127 169.414 169.984 170.924 169.787 172.592L168.68 175.916C168.592 176.179 168.545 176.455 168.542 176.733C168.497 180.332 168.132 181.653 167.67 183.325C167.189 185.063 166.644 187.034 166.309 191.344C165.475 202.069 159.649 208.23 147.979 210.731C136.486 213.196 134.448 206.963 132.651 201.466C132.467 200.89 132.273 200.317 132.068 199.748C130.435 195.306 130.619 189.041 130.874 180.372C131 176.116 130.686 165.954 128.37 160.305C128.404 158.081 128.451 155.824 128.515 153.542C128.522 153.253 128.483 152.965 128.399 152.688C128.325 152.155 128.214 151.628 128.066 151.111C127.136 147.863 124.871 145.146 122.153 144.02C121.073 143.572 119.091 142.752 116.71 143.361C117.218 141.268 118.098 138.905 119.053 136.347L119.454 135.27C119.905 134.057 120.47 132.8 121.069 131.469C124.304 124.283 128.733 114.442 123.925 92.2087C122.125 83.8814 116.111 79.8152 106.996 80.7594C101.531 81.3251 96.5318 83.5303 94.0377 84.7945C93.5377 85.0479 93.0426 85.3111 92.5529 85.5839C93.249 77.1937 95.8789 61.5136 105.715 51.5931C106.446 50.8569 107.214 50.1583 108.015 49.5001C108.413 49.4225 108.789 49.2555 109.113 49.0117C114.818 44.6847 121.963 42.5614 130.361 42.6986C133.463 42.7494 136.441 42.9557 139.265 43.3129C153.97 46.0004 163.865 54.2844 169.871 61.3817C176.046 68.6791 179.39 76.0289 180.724 79.9934C170.69 78.9727 163.863 80.955 160.403 85.9009C152.876 96.6609 164.521 117.545 170.118 127.582C171.144 129.422 172.031 131.011 172.309 131.687C174.131 136.104 176.491 139.052 178.214 141.205C178.742 141.865 179.255 142.505 179.644 143.063C176.604 143.939 171.144 145.964 171.642 156.084C171.548 157.269 171.321 159.473 171.009 162.263C170.66 163.838 170.477 165.753 170.255 168.073ZM177.008 155.78C176.701 149.473 179.049 148.814 181.533 148.117C181.877 148.023 182.219 147.92 182.557 147.809C182.878 148.093 183.218 148.354 183.575 148.59C187.9 151.445 195.574 151.785 206.376 149.609C204.848 150.951 202.441 152.638 199.147 154.168C196.04 155.611 190.838 156.693 185.897 156.925C180.439 157.18 177.662 156.313 177.008 155.78ZM181.327 85.4732C181.282 88.1334 180.916 90.5479 180.528 93.0694C180.111 95.7812 179.679 98.5855 179.569 101.989C179.462 105.301 179.876 108.745 180.276 112.075C181.085 118.802 181.914 125.728 178.703 132.561C178.169 131.616 177.694 130.64 177.28 129.637C176.88 128.669 176.014 127.115 174.815 124.964C170.146 116.591 159.213 96.9847 164.81 88.9842C167.688 84.8688 174.978 84.6913 181.327 85.4732ZM183.059 138.66C182.845 138.388 182.629 138.116 182.412 137.846L182.143 137.509C187.65 128.413 186.573 119.414 185.615 111.434C185.221 108.159 184.85 105.067 184.944 102.163C185.041 99.083 185.449 96.4425 185.842 93.8884C186.327 90.7413 186.819 87.4858 186.683 83.6471C186.785 83.2444 186.826 82.7689 186.773 82.2047C186.426 78.523 182.224 67.5082 173.658 57.5362C169.051 52.1725 162.362 46.1824 153.267 42.07C157.249 41.2616 162.616 40.5267 168.619 40.6602C184.176 41.006 196.485 46.8293 205.203 57.9684C205.388 58.2102 205.557 58.4641 205.708 58.7283C211.192 69.0082 203.614 106.314 183.059 138.66ZM116.2 92.2792C116.01 93.6397 113.857 95.4832 111.49 95.4832C111.285 95.4833 111.08 95.4691 110.876 95.4407C109.456 95.2435 108.021 94.3487 107.04 93.0474C106.693 92.5886 106.128 91.6976 106.24 90.8907C106.282 90.5866 106.438 90.1437 106.941 89.7623C107.838 89.0843 109.609 88.8326 111.564 89.1048C113.963 89.4392 116.437 90.5745 116.2 92.2792ZM176.34 89.1594C176.424 89.76 175.968 90.6837 175.179 91.5118C174.661 92.0555 173.571 92.9989 172.085 93.2044C171.897 93.2306 171.707 93.2438 171.517 93.2438C169.291 93.2438 167.411 91.4663 167.265 90.4251C167.083 89.0866 169.267 88.0697 171.52 87.7557C173.772 87.4418 176.154 87.8225 176.34 89.1594Z" fill="#2F6792"/>
</g>
<defs>
<clipPath id="clip0_210_48">
<rect width="182" height="182" fill="white" transform="translate(35 35)"/>
</clipPath>
</defs>
</svg>
