<svg width="252" height="252" viewBox="0 0 252 252" fill="none" xmlns="http://www.w3.org/2000/svg">
<path d="M0 30C0 13.4315 13.4315 0 30 0H222C238.569 0 252 13.4315 252 30V222C252 238.569 238.569 252 222 252H30C13.4315 252 0 238.569 0 222V30Z" fill="white"/>
<g clip-path="url(#clip0_207_28)">
<path d="M58.3125 48C54.263 48 51 51.263 51 55.3125V196.688C51 200.737 54.263 204 58.3125 204H199.688C203.737 204 207 200.737 207 196.688V55.3125C207 51.263 203.737 48 199.688 48H58.3125ZM171.172 111.375C175.15 111.375 178.673 111.616 181.747 112.097C184.647 112.531 187.493 113.272 190.236 114.307V130.284C188.92 129.373 187.52 128.587 186.057 127.937C184.548 127.258 182.99 126.693 181.397 126.247C178.378 125.406 175.261 124.969 172.128 124.947C170.178 124.947 168.403 125.129 166.804 125.506C165.379 125.811 164.012 126.342 162.755 127.079C161.65 127.755 160.804 128.567 160.2 129.51C159.592 130.46 159.276 131.567 159.29 132.695C159.29 133.969 159.634 135.12 160.304 136.134C160.98 137.148 161.942 138.11 163.184 139.02C164.425 139.93 165.933 140.814 167.707 141.685C169.482 142.562 171.491 143.466 173.727 144.389C176.782 145.669 179.524 147.034 181.955 148.47C184.386 149.913 186.473 151.545 188.215 153.365C189.957 155.178 191.283 157.252 192.206 159.585C193.129 161.919 193.597 164.63 193.597 167.73C193.597 172.001 192.785 175.595 191.173 178.494C189.598 181.353 187.337 183.776 184.594 185.546C181.638 187.421 178.362 188.734 174.929 189.42C171.25 190.2 167.369 190.591 163.294 190.591C159.283 190.608 155.279 190.251 151.334 189.525C147.921 188.934 144.611 187.855 141.506 186.32V169.225C147.381 174.224 154.833 176.987 162.546 177.025C164.711 177.025 166.603 176.83 168.215 176.44C169.833 176.05 171.179 175.504 172.264 174.815C173.343 174.113 174.149 173.294 174.688 172.345C175.285 171.24 175.556 169.989 175.471 168.736C175.386 167.484 174.948 166.281 174.207 165.267C173.242 163.989 172.061 162.889 170.717 162.017C169.051 160.912 167.296 159.947 165.472 159.131C163.309 158.143 161.126 157.198 158.926 156.296C152.959 153.807 148.513 150.758 145.581 147.164C142.656 143.569 141.188 139.221 141.188 134.132C141.188 130.141 141.987 126.715 143.586 123.848C145.185 120.982 147.356 118.622 150.112 116.77C153.027 114.847 156.263 113.462 159.667 112.682C163.437 111.793 167.299 111.354 171.172 111.375ZM72.9375 112.597H135.097V126.676H112.789V189.375H95.1285V126.676H72.9375V112.597Z" fill="#377CC8"/>
</g>
<defs>
<clipPath id="clip0_207_28">
<rect width="156" height="156" fill="white" transform="translate(51 48)"/>
</clipPath>
</defs>
</svg>
